<svg width="80" height="80" viewBox="0 0 80 80" fill="none" xmlns="http://www.w3.org/2000/svg">
<path d="M40.0002 67.1998C55.0402 67.1998 67.2002 55.0398 67.2002 39.9998C67.2002 24.9598 55.0402 12.7998 40.0002 12.7998C24.9602 12.7998 12.8002 24.9598 12.8002 39.9998C12.8002 55.0398 24.9602 67.1998 40.0002 67.1998ZM40.0002 15.9998C53.2802 15.9998 64.0002 26.7198 64.0002 39.9998C64.0002 53.2798 53.2802 63.9998 40.0002 63.9998C26.7202 63.9998 16.0002 53.2798 16.0002 39.9998C16.0002 26.7198 26.7202 15.9998 40.0002 15.9998Z" fill="#FF9400"/>
<path d="M40.4802 55.52L42.7202 53.28L29.4402 40L42.7202 26.72L40.4802 24.48L24.9602 40L40.4802 55.52Z" fill="#FF9400"/>
<path d="M54.3999 38.3999H27.1999V41.5999H54.3999V38.3999Z" fill="#FF9400"/>
</svg>
