<svg width="18" height="18" viewBox="0 0 18 18" fill="none" xmlns="http://www.w3.org/2000/svg">
<path d="M8.99984 6.49984C8.3368 6.49984 7.70091 6.76323 7.23207 7.23207C6.76323 7.70091 6.49984 8.3368 6.49984 8.99984C6.49984 9.66288 6.76323 10.2988 7.23207 10.7676C7.70091 11.2364 8.3368 11.4998 8.99984 11.4998C9.66288 11.4998 10.2988 11.2364 10.7676 10.7676C11.2364 10.2988 11.4998 9.66288 11.4998 8.99984C11.4998 8.3368 11.2364 7.70091 10.7676 7.23207C10.2988 6.76323 9.66288 6.49984 8.99984 6.49984ZM8.99984 4.83317C10.1049 4.83317 11.1647 5.27216 11.9461 6.05356C12.7275 6.83496 13.1665 7.89477 13.1665 8.99984C13.1665 10.1049 12.7275 11.1647 11.9461 11.9461C11.1647 12.7275 10.1049 13.1665 8.99984 13.1665C7.89477 13.1665 6.83496 12.7275 6.05356 11.9461C5.27216 11.1647 4.83317 10.1049 4.83317 8.99984C4.83317 7.89477 5.27216 6.83496 6.05356 6.05356C6.83496 5.27216 7.89477 4.83317 8.99984 4.83317V4.83317ZM14.4165 4.62484C14.4165 4.9011 14.3068 5.16606 14.1114 5.36141C13.9161 5.55676 13.6511 5.6665 13.3748 5.6665C13.0986 5.6665 12.8336 5.55676 12.6383 5.36141C12.4429 5.16606 12.3332 4.9011 12.3332 4.62484C12.3332 4.34857 12.4429 4.08362 12.6383 3.88827C12.8336 3.69292 13.0986 3.58317 13.3748 3.58317C13.6511 3.58317 13.9161 3.69292 14.1114 3.88827C14.3068 4.08362 14.4165 4.34857 14.4165 4.62484V4.62484ZM8.99984 2.33317C6.93817 2.33317 6.6015 2.339 5.64234 2.3815C4.989 2.41234 4.55067 2.49984 4.144 2.65817C3.78234 2.79817 3.5215 2.96567 3.244 3.244C2.98318 3.496 2.78263 3.80366 2.65734 4.144C2.499 4.55234 2.4115 4.98984 2.3815 5.64234C2.33817 6.56234 2.33317 6.884 2.33317 8.99984C2.33317 11.0615 2.339 11.3982 2.3815 12.3573C2.41234 13.0098 2.49984 13.449 2.65734 13.8548C2.799 14.2173 2.96567 14.4782 3.24234 14.7548C3.52317 15.0348 3.784 15.2023 4.14234 15.3407C4.554 15.4998 4.99234 15.5882 5.64234 15.6182C6.56234 15.6615 6.884 15.6665 8.99984 15.6665C11.0615 15.6665 11.3982 15.6607 12.3573 15.6182C13.009 15.5873 13.4482 15.4998 13.8548 15.3423C14.2157 15.2015 14.4782 15.034 14.7548 14.7573C15.0357 14.4765 15.2032 14.2157 15.3415 13.8573C15.4998 13.4465 15.5882 13.0073 15.6182 12.3573C15.6615 11.4373 15.6665 11.1157 15.6665 8.99984C15.6665 6.93817 15.6607 6.6015 15.6182 5.64234C15.5873 4.99067 15.4998 4.55067 15.3415 4.144C15.2159 3.80401 15.0157 3.49647 14.7557 3.244C14.5038 2.98304 14.1961 2.78248 13.8557 2.65734C13.4473 2.499 13.009 2.4115 12.3573 2.3815C11.4373 2.33817 11.1157 2.33317 8.99984 2.33317ZM8.99984 0.666504C11.264 0.666504 11.5465 0.674837 12.4348 0.716504C13.3223 0.758171 13.9265 0.897337 14.4582 1.104C15.0082 1.31567 15.4715 1.60234 15.9348 2.06484C16.3586 2.48142 16.6865 2.98533 16.8957 3.5415C17.1015 4.07234 17.2415 4.67734 17.2832 5.56484C17.3223 6.45317 17.3332 6.73567 17.3332 8.99984C17.3332 11.264 17.3248 11.5465 17.2832 12.4348C17.2415 13.3223 17.1015 13.9265 16.8957 14.4582C16.6871 15.0147 16.3591 15.5187 15.9348 15.9348C15.5181 16.3584 15.0143 16.6863 14.4582 16.8957C13.9273 17.1015 13.3223 17.2415 12.4348 17.2832C11.5465 17.3223 11.264 17.3332 8.99984 17.3332C6.73567 17.3332 6.45317 17.3248 5.56484 17.2832C4.67734 17.2415 4.07317 17.1015 3.5415 16.8957C2.98511 16.6869 2.48111 16.359 2.06484 15.9348C1.64101 15.5183 1.31311 15.0144 1.104 14.4582C0.897337 13.9273 0.758171 13.3223 0.716504 12.4348C0.677337 11.5465 0.666504 11.264 0.666504 8.99984C0.666504 6.73567 0.674837 6.45317 0.716504 5.56484C0.758171 4.6765 0.897337 4.07317 1.104 3.5415C1.31253 2.98499 1.64051 2.48094 2.06484 2.06484C2.48123 1.64086 2.98519 1.31295 3.5415 1.104C4.07317 0.897337 4.6765 0.758171 5.56484 0.716504C6.45317 0.677337 6.73567 0.666504 8.99984 0.666504Z" fill="#F19E22"/>
</svg>
