<svg width="153" height="46" viewBox="0 0 153 46" fill="none" xmlns="http://www.w3.org/2000/svg">
<path d="M19.7052 22.8903L19.6536 22.9076L14.4052 25.9626L12.4553 27.1049L7.2069 30.1599L5.257 31.2937L0 34.3313L2.07875 35.543H2.08734L5.257 37.3863H5.26559L7.2069 36.2699L12.4553 33.2149L14.4052 32.0726L19.6536 29.0262L24.9622 25.9453L19.7138 22.8989H19.7052V22.8903Z" fill="url(#paint0_linear_24_3158)"/>
<path d="M24.9617 19.8354L30.1929 22.8904H30.2015L32.1514 21.7393L26.9202 18.693L24.9617 19.8354Z" fill="url(#paint1_linear_24_3158)"/>
<path d="M39.316 17.5326V11.4918L34.1191 14.5035L32.1606 15.6459L37.4091 18.7009H37.4176L39.316 17.5932L39.3761 17.5672L39.316 17.5412V17.5326Z" fill="url(#paint2_linear_24_3158)"/>
<path d="M19.6622 31.2941L14.4138 34.3491L12.4639 35.4915L7.24121 38.5292L12.4639 41.5755V41.5928H12.481L14.4138 40.4505L19.6622 37.3955L32.1604 30.1258L26.9292 27.0708L19.6708 31.2941H19.6622Z" fill="url(#paint3_linear_24_3158)"/>
<path d="M39.316 25.8938V19.853L34.1191 22.8734L32.1606 24.0071L37.4091 27.0621H37.4176L39.316 25.9544L39.3761 25.9284L39.316 25.9024V25.8938Z" fill="url(#paint4_linear_24_3158)"/>
<path d="M39.3159 19.7999L37.4175 18.7008H37.4089L32.1605 15.6458L19.6623 8.3761L14.4139 5.3211L12.4983 4.20469L12.4726 4.18738V4.23065L7.26709 7.26834L12.4726 10.306L14.4225 11.4397L19.6709 14.4947L26.9293 18.7181L32.1605 21.7644L34.119 22.9155L39.376 25.9531V19.8691L39.3159 19.8258V19.7999Z" fill="url(#paint5_linear_24_3158)"/>
<path d="M19.6616 45.7544L14.439 42.6994L19.6616 39.653L34.1184 31.2583L39.3152 34.27L39.3668 34.296L19.6616 45.7457V45.7544Z" fill="url(#paint6_linear_24_3158)"/>
<path d="M32.1603 24.0228L30.2104 22.8891H30.2018L24.9706 19.8341L19.662 16.7445L14.4136 13.6982L12.4637 12.5645L7.21529 9.50946L5.28257 8.39304L5.26539 8.37573V8.4017L2.07855 10.2537L1.06494 12.0279L5.26539 14.4684L7.21529 15.6108L12.4637 18.6658L14.4136 19.7995L19.662 22.8545L19.7136 22.8978H19.7221L24.9706 25.9441L26.929 27.0778L32.1603 30.1328L34.1188 31.2752L39.35 34.3302V28.2202L32.1603 24.0402V24.0228Z" fill="url(#paint7_linear_24_3158)"/>
<path d="M39.3156 11.4918V17.5325L34.1188 14.5122L19.662 6.10011L14.4565 3.07974L19.662 0.0420512V-0.0012207L39.3156 11.4918Z" fill="url(#paint8_linear_24_3158)"/>
<path d="M5.27507 8.411V37.3858L2.10541 35.5425H2.09682L0.0180664 34.3309V11.4573L2.08823 10.2544L5.27507 8.40234V8.411Z" fill="url(#paint9_linear_24_3158)"/>
<path d="M12.4644 4.22252V41.5662L7.24179 38.5198H7.22461V7.23424L7.26756 7.25155L12.473 4.21387L12.4644 4.22252Z" fill="url(#paint10_linear_24_3158)"/>
<path d="M19.6624 0.0422363V45.746L14.4398 42.6997H14.4226V3.03665L14.4656 3.06261L19.6624 0.0422363Z" fill="url(#paint11_linear_24_3158)"/>
<path d="M149.899 15.2098C151.611 15.2098 153 13.811 153 12.0855C153 10.3601 151.611 8.9613 149.899 8.9613C148.186 8.9613 146.798 10.3601 146.798 12.0855C146.798 13.811 148.186 15.2098 149.899 15.2098Z" fill="#6B95E8"/>
<path d="M66.9862 12.466L65.1909 16.1008C64.2203 15.1229 62.6483 14.6296 60.4923 14.6296C58.4479 14.6296 56.7642 15.495 55.4586 17.2259C54.1529 18.9568 53.4915 21.1463 53.4915 23.7945C53.4915 26.4428 54.1014 28.5458 55.3126 30.1036C56.5237 31.6614 58.1472 32.4403 60.1658 32.4403C62.4851 32.4403 64.289 31.6094 65.6032 29.9392L67.6304 33.4875C65.8523 35.3914 63.2496 36.3434 59.8137 36.3434C56.3777 36.3434 53.7148 35.201 51.8079 32.9249C49.9009 30.6488 48.9561 27.5419 48.9561 23.6128C48.9561 19.952 50.0126 16.8884 52.1171 14.4219C54.2216 11.9554 56.9275 10.7264 60.2088 10.7264C63.0263 10.7264 65.2854 11.3063 66.969 12.466H66.9862Z" fill="white"/>
<path d="M69.7354 26.8245C69.7354 24.0638 70.5257 21.8136 72.1062 20.0828C73.6867 18.3519 75.7741 17.4778 78.3682 17.4778C81.0998 17.4778 83.2129 18.3086 84.7247 19.9789C86.2365 21.6492 86.9924 23.9253 86.9924 26.8245C86.9924 29.7237 86.2194 31.9998 84.6818 33.7047C83.1442 35.4097 81.0397 36.2578 78.3682 36.2578C75.6968 36.2578 73.5149 35.401 72.0031 33.6788C70.4913 31.9566 69.7268 29.6718 69.7268 26.8245H69.7354ZM74.099 26.8245C74.099 30.8142 75.525 32.8047 78.3768 32.8047C79.6825 32.8047 80.7218 32.2854 81.4863 31.2469C82.2508 30.2084 82.6374 28.7371 82.6374 26.8159C82.6374 22.8868 81.2201 20.9136 78.3768 20.9136C77.0711 20.9136 76.0318 21.4328 75.2587 22.4714C74.4856 23.5099 74.099 24.9552 74.099 26.8159V26.8245Z" fill="white"/>
<path d="M101.929 35.9288V34.4056C101.337 34.9162 100.521 35.3489 99.4811 35.7038C98.4418 36.0586 97.4883 36.2403 96.6121 36.2403C92.4374 36.2403 90.3501 34.0075 90.3501 29.5505V17.8065H94.542V29.2303C94.542 31.5497 95.5727 32.7094 97.6429 32.7094C98.5964 32.7094 99.4811 32.4584 100.297 31.9651C101.113 31.4718 101.654 30.8919 101.921 30.2429V17.8065H106.113V35.9288H101.921H101.929Z" fill="white"/>
<path d="M113.62 34.9166L112.684 36.2494H110.322V11.0652L114.514 10.0526V18.5079C115.63 17.8242 116.85 17.4781 118.173 17.4781C120.801 17.4781 122.923 18.3175 124.529 19.9878C126.136 21.6581 126.943 23.8044 126.943 26.418C126.943 29.4471 126.136 31.8443 124.512 33.6098C122.889 35.3753 120.69 36.2581 117.915 36.2581C116.249 36.2581 114.814 35.8167 113.62 34.9253V34.9166ZM114.514 22.1168V31.5674C115.132 32.303 115.965 32.6665 117.013 32.6665C119.041 32.6665 120.475 32.1819 121.317 31.2126C122.159 30.2433 122.58 28.6941 122.58 26.5652C122.58 22.8871 120.836 21.0523 117.348 21.0523C116.103 21.0523 115.158 21.4072 114.514 22.1168Z" fill="white"/>
<path d="M146.675 28.1573H133.841C133.919 29.6026 134.408 30.719 135.319 31.5238C136.229 32.3287 137.44 32.7268 138.978 32.7268C140.894 32.7268 142.345 32.2248 143.342 31.2209L144.965 34.449C143.488 35.652 141.289 36.2578 138.351 36.2578C135.611 36.2578 133.446 35.4529 131.848 33.8346C130.251 32.2162 129.46 29.9574 129.46 27.0668C129.46 24.1763 130.337 21.9088 132.089 20.1347C133.841 18.3605 135.937 17.4778 138.385 17.4778C140.988 17.4778 143.084 18.2653 144.656 19.8231C146.228 21.3809 147.018 23.3801 147.018 25.8033C147.018 26.3226 146.898 27.1014 146.666 28.1486L146.675 28.1573ZM133.987 24.9811H142.809C142.517 22.3329 141.065 21.0088 138.445 21.0088C136.049 21.0088 134.563 22.3329 133.979 24.9811H133.987Z" fill="white"/>
<defs>
<linearGradient id="paint0_linear_24_3158" x1="0.0171797" y1="30.1426" x2="24.9622" y2="30.1426" gradientUnits="userSpaceOnUse">
<stop stop-color="#F69C22"/>
<stop offset="1" stop-color="#A76916"/>
</linearGradient>
<linearGradient id="paint1_linear_24_3158" x1="24.9617" y1="20.796" x2="32.16" y2="20.796" gradientUnits="userSpaceOnUse">
<stop stop-color="#1F1F1F"/>
<stop offset="1" stop-color="#F69C22"/>
</linearGradient>
<linearGradient id="paint2_linear_24_3158" x1="32.1606" y1="15.092" x2="39.3761" y2="15.092" gradientUnits="userSpaceOnUse">
<stop stop-color="#1F1F1F"/>
<stop offset="1" stop-color="#F69C22"/>
</linearGradient>
<linearGradient id="paint3_linear_24_3158" x1="7.24121" y1="34.3232" x2="32.1604" y2="34.3232" gradientUnits="userSpaceOnUse">
<stop stop-color="#F69C22"/>
<stop offset="1" stop-color="#A76916"/>
</linearGradient>
<linearGradient id="paint4_linear_24_3158" x1="32.1606" y1="23.4619" x2="39.3761" y2="23.4619" gradientUnits="userSpaceOnUse">
<stop stop-color="#1F1F1F"/>
<stop offset="1" stop-color="#F69C22"/>
</linearGradient>
<linearGradient id="paint5_linear_24_3158" x1="40.8363" y1="23.4347" x2="10.7172" y2="6.76767" gradientUnits="userSpaceOnUse">
<stop stop-color="#F69C22"/>
<stop offset="1" stop-color="#A76916"/>
</linearGradient>
<linearGradient id="paint6_linear_24_3158" x1="14.4304" y1="38.5107" x2="39.3582" y2="38.5107" gradientUnits="userSpaceOnUse">
<stop stop-color="#F69C22"/>
<stop offset="1" stop-color="#A76916"/>
</linearGradient>
<linearGradient id="paint7_linear_24_3158" x1="37.9241" y1="31.1973" x2="5.31098" y2="11.0955" gradientUnits="userSpaceOnUse">
<stop stop-color="#F69C22"/>
<stop offset="1" stop-color="#A76916"/>
</linearGradient>
<linearGradient id="paint8_linear_24_3158" x1="41.0851" y1="15.8017" x2="17.871" y2="2.0814" gradientUnits="userSpaceOnUse">
<stop stop-color="#F69C22"/>
<stop offset="1" stop-color="#A76916"/>
</linearGradient>
<linearGradient id="paint9_linear_24_3158" x1="2.64657" y1="37.3772" x2="2.64657" y2="8.40234" gradientUnits="userSpaceOnUse">
<stop stop-color="#FF9400"/>
<stop offset="1" stop-color="#F69E26"/>
</linearGradient>
<linearGradient id="paint10_linear_24_3158" x1="9.84452" y1="41.5575" x2="9.84452" y2="4.22252" gradientUnits="userSpaceOnUse">
<stop stop-color="#FF9400"/>
<stop offset="1" stop-color="#F69E26"/>
</linearGradient>
<linearGradient id="paint11_linear_24_3158" x1="17.0339" y1="45.746" x2="17.0339" y2="0.0335828" gradientUnits="userSpaceOnUse">
<stop stop-color="#FF9400"/>
<stop offset="1" stop-color="#F69E26"/>
</linearGradient>
</defs>
</svg>
