<svg width="30" height="24" viewBox="0 0 30 24" fill="none" xmlns="http://www.w3.org/2000/svg">
<path d="M1.6665 2.66683C1.6665 2.31321 1.80698 1.97407 2.05703 1.72402C2.30708 1.47397 2.64622 1.3335 2.99984 1.3335H26.9998C27.3535 1.3335 27.6926 1.47397 27.9426 1.72402C28.1927 1.97407 28.3332 2.31321 28.3332 2.66683V21.3335C28.3332 21.6871 28.1927 22.0263 27.9426 22.2763C27.6926 22.5264 27.3535 22.6668 26.9998 22.6668H2.99984C2.64622 22.6668 2.30708 22.5264 2.05703 22.2763C1.80698 22.0263 1.6665 21.6871 1.6665 21.3335V2.66683Z" stroke="#FF9400" stroke-width="2.66667" stroke-linejoin="round"/>
<path d="M22.9998 1.3335V22.6668M6.99984 1.3335V22.6668M24.3332 8.00016H28.3332M24.3332 16.0002H28.3332M1.6665 8.00016H5.6665M1.6665 6.66683V9.3335M4.99984 1.3335H8.99984M4.99984 22.6668H8.99984M20.9998 1.3335H24.9998M20.9998 22.6668H24.9998M1.6665 16.0002H5.6665M1.6665 14.6668V17.3335M28.3332 14.6668V17.3335M28.3332 6.66683V9.3335" stroke="#FF9400" stroke-width="2.66667" stroke-linecap="round" stroke-linejoin="round"/>
<path d="M13 8.6665L18.3333 11.9998L13 15.3332V8.6665Z" stroke="#FF9400" stroke-width="2.66667" stroke-linejoin="round"/>
</svg>
