<?xml version="1.0" encoding="UTF-8"?><svg xmlns="http://www.w3.org/2000/svg" viewBox="0 0 48 48" width="48" height="48"><path fill="#e53935" d="M32 12H38V18H32z"/><path fill="#ff5252" d="M14 2L30 2 40 12 40 26 14 26z"/><path fill="#e53935" d="M14 2L14 26 8 32 8 8z"/><path fill="#f44336" d="M8 42H40V46H8z"/><rect width="32" height="10" x="8" y="32" fill="#fafafa"/><path fill="#8d6e63" d="M40 31H8V12L14 2H30L40 12V31M30 12V4H14V12H10V28H38V12H30M28 6H16V10H28V6Z"/><text x="24" y="39" text-anchor="middle" font-family="Arial" font-weight="bold" font-size="8" fill="#d32f2f">PDF</text></svg>
