<svg width="52" height="49" viewBox="0 0 52 49" fill="none" xmlns="http://www.w3.org/2000/svg">
<path d="M1.625 13.625H50.375M7.25 2.375H44.75C47.8625 2.375 50.375 4.8875 50.375 8V41.75C50.375 44.8625 47.8625 47.375 44.75 47.375H7.25C5.75816 47.375 4.32742 46.7824 3.27252 45.7275C2.21763 44.6726 1.625 43.2418 1.625 41.75V8C1.625 4.8875 4.1375 2.375 7.25 2.375Z" stroke="#F69C22" stroke-width="3" stroke-linecap="round" stroke-linejoin="round"/>
<path d="M9.125 13.625L16.625 2.375M22.25 13.625L29.75 2.375M35.375 13.625L42.875 2.375M20.375 23V38L35.375 30.5L20.375 23Z" stroke="#F69C22" stroke-width="3" stroke-linecap="round" stroke-linejoin="round"/>
</svg>
