<svg width="20" height="18" viewBox="0 0 20 18" fill="none" xmlns="http://www.w3.org/2000/svg">
<path d="M9.9877 11.8403L12.6888 14.9113C13.6896 16.0491 14.19 16.618 14.7138 16.4795C15.2375 16.341 15.4171 15.5923 15.7763 14.0949L17.7689 5.78825C18.3221 3.48194 18.5988 2.32878 17.9839 1.76C17.369 1.19122 16.3032 1.61437 14.1716 2.46068L4.28214 6.38707C2.57728 7.06395 1.72484 7.40239 1.67073 7.98403C1.66519 8.04353 1.6651 8.10344 1.67045 8.16295C1.72279 8.74477 2.57418 9.08605 4.27696 9.7686C5.04849 10.0779 5.43425 10.2325 5.71084 10.5286C5.74193 10.5619 5.77184 10.5964 5.80048 10.632C6.05532 10.9486 6.16407 11.3642 6.38157 12.1954L6.78861 13.7508C7.00026 14.5596 7.10608 14.964 7.38324 15.0191C7.6604 15.0743 7.90171 14.7389 8.38433 14.0683L9.9877 11.8403ZM9.9877 11.8403L9.72286 11.5642C9.42145 11.2501 9.27075 11.0931 9.27075 10.8979C9.27075 10.7027 9.42145 10.5457 9.72286 10.2315L12.7003 7.12841" stroke="#F19E22" stroke-width="1.5" stroke-linecap="round" stroke-linejoin="round"/>
</svg>
