<svg width="80" height="80" viewBox="0 0 80 80" fill="none" xmlns="http://www.w3.org/2000/svg">
<path d="M39.9998 67.1998C24.9598 67.1998 12.7998 55.0398 12.7998 39.9998C12.7998 24.9598 24.9598 12.7998 39.9998 12.7998C55.0398 12.7998 67.1998 24.9598 67.1998 39.9998C67.1998 55.0398 55.0398 67.1998 39.9998 67.1998ZM39.9998 15.9998C26.7198 15.9998 15.9998 26.7198 15.9998 39.9998C15.9998 53.2798 26.7198 63.9998 39.9998 63.9998C53.2798 63.9998 63.9998 53.2798 63.9998 39.9998C63.9998 26.7198 53.2798 15.9998 39.9998 15.9998Z" fill="#FF9400"/>
<path d="M39.5198 55.52L37.2798 53.28L50.5598 40L37.2798 26.72L39.5198 24.48L55.0398 40L39.5198 55.52Z" fill="#FF9400"/>
<path d="M25.6001 38.3999H52.8001V41.5999H25.6001V38.3999Z" fill="#FF9400"/>
</svg>
