<svg width="20" height="20" viewBox="0 0 20 20" fill="none" xmlns="http://www.w3.org/2000/svg">
<path d="M1.6665 4.16699L7.42736 7.43751C9.53205 8.63238 10.4676 8.63238 12.5723 7.43751L18.3332 4.16699" stroke="#F19E22" stroke-width="1.5" stroke-linejoin="round"/>
<path d="M8.74984 16.2502C8.36125 16.2451 7.97219 16.2376 7.58219 16.2278C4.95845 16.1619 3.64657 16.1289 2.70397 15.1822C1.76136 14.2354 1.73412 12.9574 1.67964 10.4013C1.66212 9.57943 1.66212 8.7624 1.67964 7.94052C1.73412 5.38444 1.76136 4.10639 2.70396 3.15966C3.64657 2.21292 4.95844 2.17994 7.58219 2.11398C9.19926 2.07333 10.8004 2.07333 12.4175 2.11399C15.0412 2.17995 16.3531 2.21293 17.2957 3.15967C18.2383 4.10641 18.2656 5.38445 18.32 7.94053C18.3281 8.31892 18.3325 8.49724 18.3331 8.75016" stroke="#F19E22" stroke-width="1.5" stroke-linecap="round" stroke-linejoin="round"/>
<path d="M15.833 14.167C15.833 14.8573 15.2734 15.417 14.583 15.417C13.8927 15.417 13.333 14.8573 13.333 14.167C13.333 13.4766 13.8927 12.917 14.583 12.917C15.2734 12.917 15.833 13.4766 15.833 14.167ZM15.833 14.167V14.5837C15.833 15.274 16.3927 15.8337 17.083 15.8337C17.7734 15.8337 18.333 15.274 18.333 14.5837V14.167C18.333 12.0959 16.6541 10.417 14.583 10.417C12.5119 10.417 10.833 12.0959 10.833 14.167C10.833 16.2381 12.5119 17.917 14.583 17.917" stroke="#F19E22" stroke-width="1.5" stroke-linecap="round" stroke-linejoin="round"/>
</svg>
