<svg width="14" height="20" viewBox="0 0 14 20" fill="none" xmlns="http://www.w3.org/2000/svg">
<path d="M1.16675 7.49996C1.16675 4.7501 1.16675 3.37517 2.02102 2.5209C2.87529 1.66663 4.25022 1.66663 7.00008 1.66663C9.74994 1.66663 11.1249 1.66663 11.9791 2.5209C12.8334 3.37517 12.8334 4.7501 12.8334 7.49996V12.5C12.8334 15.2498 12.8334 16.6248 11.9791 17.479C11.1249 18.3333 9.74994 18.3333 7.00008 18.3333C4.25022 18.3333 2.87529 18.3333 2.02102 17.479C1.16675 16.6248 1.16675 15.2498 1.16675 12.5L1.16675 7.49996Z" stroke="#FAB54D" stroke-width="1.5" stroke-linecap="round"/>
<path d="M6.16675 15.8333H7.83341" stroke="#FAB54D" stroke-width="1.5" stroke-linecap="round" stroke-linejoin="round"/>
<path d="M4.5 1.66663L4.57417 2.11164C4.7349 3.07604 4.81527 3.55823 5.14599 3.85166C5.49098 4.15774 5.98012 4.16663 7 4.16663C8.01988 4.16663 8.50902 4.15774 8.85401 3.85166C9.18473 3.55824 9.2651 3.07603 9.42583 2.11164L9.5 1.66663" stroke="#FAB54D" stroke-width="1.5" stroke-linejoin="round"/>
</svg>
