<svg width="20" height="20" viewBox="0 0 20 20" fill="none" xmlns="http://www.w3.org/2000/svg">
<path d="M5.64876 15.953L6.31243 16.3407C7.43162 16.9935 8.70455 17.3362 10.0002 17.3335C11.4506 17.3335 12.8684 16.9034 14.0744 16.0976C15.2803 15.2918 16.2203 14.1465 16.7753 12.8065C17.3303 11.4665 17.4756 9.99203 17.1926 8.5695C16.9096 7.14697 16.2112 5.8403 15.1856 4.81471C14.16 3.78913 12.8534 3.0907 11.4308 2.80774C10.0083 2.52478 8.53382 2.67 7.19383 3.22505C5.85384 3.78009 4.70853 4.72002 3.90273 5.92598C3.09693 7.13194 2.66684 8.54977 2.66684 10.0002C2.66684 11.3165 3.01243 12.5787 3.66051 13.6888L4.04734 14.3525L3.44876 16.5534L5.64876 15.953ZM0.837175 19.1668L2.07651 14.6128C1.25988 13.2129 0.830846 11.6208 0.833508 10.0002C0.833508 4.93741 4.93743 0.833496 10.0002 0.833496C15.0629 0.833496 19.1668 4.93741 19.1668 10.0002C19.1668 15.0629 15.0629 19.1668 10.0002 19.1668C8.38022 19.1694 6.78878 18.7407 5.38934 17.9247L0.837175 19.1668ZM6.69193 5.69916C6.81476 5.69 6.93851 5.69 7.06134 5.6955C7.11084 5.69916 7.16034 5.70466 7.20984 5.71016C7.35559 5.72666 7.51601 5.81558 7.57009 5.93841C7.84326 6.55808 8.10909 7.18233 8.36576 7.80841C8.42259 7.94775 8.38867 8.1265 8.28051 8.30066C8.20612 8.41843 8.12565 8.53226 8.03943 8.64166C7.93584 8.77458 7.71309 9.01841 7.71309 9.01841C7.71309 9.01841 7.62234 9.12658 7.65718 9.26133C7.67001 9.31266 7.71217 9.38691 7.75067 9.44925L7.80476 9.53633C8.03942 9.92775 8.35476 10.3247 8.73976 10.6987C8.84976 10.805 8.95701 10.9141 9.07251 11.0158C9.50151 11.3944 9.98734 11.7033 10.5117 11.9325L10.5163 11.9343C10.5942 11.9682 10.6336 11.9866 10.7473 12.0352C10.8041 12.059 10.8628 12.0801 10.9223 12.0957C10.9839 12.1113 11.0488 12.1084 11.1086 12.0872C11.1685 12.066 11.2208 12.0274 11.2588 11.9765C11.9224 11.1726 11.9829 11.1203 11.9884 11.1203V11.1222C12.0345 11.0792 12.0893 11.0465 12.1491 11.0264C12.2088 11.0064 12.2722 10.9993 12.3349 11.0057C12.3899 11.0094 12.4458 11.0195 12.4972 11.0424C12.9839 11.2652 13.7805 11.6126 13.7805 11.6126L14.314 11.8518C14.4038 11.8949 14.4854 11.9967 14.4882 12.0947C14.4918 12.1562 14.4973 12.2552 14.4763 12.4367C14.4469 12.6741 14.3754 12.9592 14.3039 13.1086C14.255 13.2105 14.19 13.304 14.1114 13.3854C14.0189 13.4825 13.9177 13.5709 13.8089 13.6494C13.7713 13.6777 13.7331 13.7052 13.6943 13.7319C13.5803 13.8042 13.4632 13.8715 13.3433 13.9336C13.1072 14.0589 12.8466 14.1309 12.5797 14.1444C12.4101 14.1536 12.2405 14.1664 12.07 14.1572C12.0627 14.1572 11.5493 14.0775 11.5493 14.0775C10.2461 13.7347 9.04078 13.0925 8.02934 12.202C7.82218 12.0196 7.63059 11.8234 7.43443 11.6282C6.61859 10.8169 6.00259 9.9415 5.62859 9.11466C5.43716 8.70884 5.33376 8.26712 5.32518 7.8185C5.3214 7.26194 5.50333 6.72002 5.84218 6.2785C5.90909 6.19233 5.97234 6.1025 6.08143 5.99891C6.19784 5.88891 6.27118 5.83025 6.35092 5.78991C6.45696 5.73677 6.57263 5.7056 6.69101 5.69825L6.69193 5.69916Z" fill="#F19E22"/>
</svg>
